<?xml version="1.0" encoding="UTF-8"?>
<svg xmlns="http://www.w3.org/2000/svg" xmlns:xlink="http://www.w3.org/1999/xlink" width="219pt" height="92pt" viewBox="0 0 219 92" version="1.1">
<defs>
<clipPath id="clip1">
  <path d="M 183 9 L 218.371094 9 L 218.371094 69 L 183 69 Z "/>
</clipPath>
<clipPath id="clip2">
  <path d="M 0.0585938 0.789062 L 92 0.789062 L 92 92 L 0.0585938 92 Z "/>
</clipPath>
</defs>
<g id="surface1">
<path style=" stroke:none;fill-rule:nonzero;fill:rgb(21.044922%,15.483093%,0.340271%);fill-opacity:1;" d="M 130.871094 31.835938 C 126.085938 31.835938 122.519531 34.1875 122.519531 39.84375 C 122.519531 44.105469 124.867188 47.066406 130.613281 47.066406 C 135.484375 47.066406 138.792969 44.195312 138.792969 39.667969 C 138.792969 34.535156 135.832031 31.835938 130.871094 31.835938 Z M 121.300781 71.785156 C 120.167969 73.175781 119.039062 74.65625 119.039062 76.398438 C 119.039062 79.878906 123.472656 80.925781 129.566406 80.925781 C 134.617188 80.925781 141.492188 80.570312 141.492188 75.878906 C 141.492188 73.085938 138.183594 72.914062 134.003906 72.652344 Z M 147.0625 32.097656 C 148.625 34.101562 150.28125 36.886719 150.28125 40.890625 C 150.28125 50.550781 142.710938 56.203125 131.746094 56.203125 C 128.957031 56.203125 126.433594 55.859375 124.867188 55.421875 L 121.996094 60.035156 L 130.523438 60.554688 C 145.582031 61.515625 154.457031 61.953125 154.457031 73.523438 C 154.457031 83.53125 145.667969 89.1875 130.523438 89.1875 C 114.773438 89.1875 108.765625 85.183594 108.765625 78.308594 C 108.765625 74.390625 110.507812 72.308594 113.554688 69.429688 C 110.679688 68.21875 109.726562 66.042969 109.726562 63.691406 C 109.726562 61.773438 110.679688 60.035156 112.25 58.378906 C 113.816406 56.730469 115.554688 55.074219 117.644531 53.160156 C 113.382812 51.070312 110.160156 46.542969 110.160156 40.101562 C 110.160156 30.097656 116.773438 23.222656 130.089844 23.222656 C 133.832031 23.222656 136.09375 23.566406 138.097656 24.09375 L 155.070312 24.09375 L 155.070312 31.488281 L 147.0625 32.097656 "/>
<path style=" stroke:none;fill-rule:nonzero;fill:rgb(21.044922%,15.483093%,0.340271%);fill-opacity:1;" d="M 170.378906 16.28125 C 165.417969 16.28125 162.546875 13.410156 162.546875 8.445312 C 162.546875 3.488281 165.417969 0.789062 170.378906 0.789062 C 175.429688 0.789062 178.300781 3.488281 178.300781 8.445312 C 178.300781 13.410156 175.429688 16.28125 170.378906 16.28125 Z M 159.152344 68.585938 L 159.152344 61.710938 L 163.589844 61.105469 C 164.808594 60.929688 164.984375 60.667969 164.984375 59.359375 L 164.984375 33.773438 C 164.984375 32.820312 164.722656 32.207031 163.851562 31.949219 L 159.152344 30.292969 L 160.109375 23.246094 L 178.125 23.246094 L 178.125 59.359375 C 178.125 60.757812 178.210938 60.929688 179.519531 61.105469 L 183.957031 61.710938 L 183.957031 68.585938 L 159.152344 68.585938 "/>
<g clip-path="url(#clip1)" clip-rule="nonzero">
<path style=" stroke:none;fill-rule:nonzero;fill:rgb(21.044922%,15.483093%,0.340271%);fill-opacity:1;" d="M 218.371094 65.210938 C 214.628906 67.035156 209.148438 68.691406 204.183594 68.691406 C 193.828125 68.691406 189.914062 64.515625 189.914062 54.679688 L 189.914062 31.878906 C 189.914062 31.355469 189.914062 31.007812 189.214844 31.007812 L 183.121094 31.007812 L 183.121094 23.261719 C 190.785156 22.390625 193.828125 18.558594 194.785156 9.074219 L 203.054688 9.074219 L 203.054688 21.433594 C 203.054688 22.042969 203.054688 22.304688 203.75 22.304688 L 216.019531 22.304688 L 216.019531 31.007812 L 203.054688 31.007812 L 203.054688 51.804688 C 203.054688 56.941406 204.273438 58.941406 208.972656 58.941406 C 211.410156 58.941406 213.933594 58.332031 216.019531 57.550781 L 218.371094 65.210938 "/>
</g>
<g clip-path="url(#clip2)" clip-rule="nonzero">
<path style=" stroke:none;fill-rule:nonzero;fill:rgb(94.035339%,23.452759%,17.964172%);fill-opacity:1;" d="M 89.421875 42.371094 L 49.628906 2.582031 C 47.339844 0.289062 43.621094 0.289062 41.328125 2.582031 L 33.066406 10.84375 L 43.546875 21.324219 C 45.984375 20.503906 48.777344 21.054688 50.71875 22.996094 C 52.667969 24.949219 53.21875 27.769531 52.375 30.210938 L 62.476562 40.3125 C 64.921875 39.472656 67.738281 40.015625 69.691406 41.972656 C 72.421875 44.699219 72.421875 49.117188 69.691406 51.847656 C 66.964844 54.578125 62.542969 54.578125 59.8125 51.847656 C 57.761719 49.792969 57.253906 46.78125 58.292969 44.253906 L 48.871094 34.832031 L 48.871094 59.621094 C 49.535156 59.953125 50.164062 60.390625 50.71875 60.945312 C 53.445312 63.671875 53.445312 68.089844 50.71875 70.820312 C 47.988281 73.550781 43.566406 73.550781 40.84375 70.820312 C 38.113281 68.089844 38.113281 63.671875 40.84375 60.945312 C 41.515625 60.269531 42.296875 59.761719 43.128906 59.421875 L 43.128906 34.398438 C 42.296875 34.058594 41.515625 33.550781 40.84375 32.871094 C 38.773438 30.808594 38.277344 27.777344 39.335938 25.238281 L 29.003906 14.902344 L 1.71875 42.1875 C -0.574219 44.480469 -0.574219 48.199219 1.71875 50.488281 L 41.511719 90.28125 C 43.804688 92.574219 47.519531 92.574219 49.8125 90.28125 L 89.421875 50.675781 C 91.714844 48.382812 91.714844 44.664062 89.421875 42.371094 "/>
</g>
</g>
</svg>
