<?xml version="1.0" encoding="utf-8"?>
<!-- Generator: Adobe Illustrator 17.1.0, SVG Export Plug-In . SVG Version: 6.00 Build 0)  -->
<!DOCTYPE svg PUBLIC "-//W3C//DTD SVG 1.1//EN" "http://www.w3.org/Graphics/SVG/1.1/DTD/svg11.dtd">
<svg version="1.1" id="Layer_1" xmlns="http://www.w3.org/2000/svg" xmlns:xlink="http://www.w3.org/1999/xlink" x="0px" y="0px"
         viewBox="0 0 525.4 273" enable-background="new 0 0 525.4 273" xml:space="preserve">
<g id="boundary">
        <path fill="none" d="M0,0v273h525.4V0H0z"/>
</g>
<g id="base">
        <g id="border_1_">
                <path fill="#414141" d="M158.1,67.3c6.1,0,11,4.9,11,11v36c0,6.1-4.9,11-11,11H30.3c-6.1,0-11-4.9-11-11v-36c0-6.1,4.9-11,11-11
                        H158.1 M158.1,66.3H30.3c-6.6,0-12,5.4-12,12v36c0,6.6,5.4,12,12,12h127.8c6.6,0,12-5.4,12-12v-36
                        C170.1,71.7,164.7,66.3,158.1,66.3L158.1,66.3z"/>
        </g>
        <text transform="matrix(1 0 0 1 66.9089 103.7521)" fill="#221F1F" font-family="'HelveticaNeue-Light'" font-size="27.7481">local</text>
        <path fill="#58595B" fill-opacity="0.5" d="M114.2,1.5c-2.9,0-40,0-40,0c-2.9,0-2.9,2.9-2.9,2.9v25.7c0,0,0,2.9,2.9,2.9h14.3
                c0,0-8.6,2.9-8.6,5.7s2.9,2.9,2.9,2.9h22.9c0,0,2.9,0,2.9-2.9s-8.6-5.7-8.6-5.7h14.3c2.9,0,2.9-2.9,2.9-2.9V4.4
                C117,4.4,117,1.5,114.2,1.5z M114.2,30.1h-40V4.4h40V30.1z M111.3,7.2h-8.6C85.6,10.1,77,24.4,77,24.4v2.9h34.3L111.3,7.2
                L111.3,7.2z"/>
        <g id="border_4_" opacity="0.3">
                <path fill="#414141" d="M164,51.5c12.1,0,22,9.9,22,22v172.2c0,12.1-9.9,22-22,22H25c-12.1,0-22-9.9-22-22V73.5
                        c0-12.1,9.9-22,22-22L164,51.5 M164,50.5H25c-12.6,0-23,10.4-23,23v172.2c0,12.6,10.4,23,23,23h139c12.6,0,23-10.4,23-23V73.5
                        C187,60.9,176.6,50.5,164,50.5L164,50.5z"/>
        </g>
</g>
<g id="step-1">
        <g id="border_6_">
                <path fill="#414141" d="M508.6,67.3c6.1,0,11,4.9,11,11v36c0,6.1-4.9,11-11,11H365.5c-6.1,0-11-4.9-11-11v-36c0-6.1,4.9-11,11-11
                        H508.6 M508.6,66.3H365.5c-6.6,0-12,5.4-12,12v36c0,6.6,5.4,12,12,12h143.1c6.6,0,12-5.4,12-12v-36
                        C520.6,71.7,515.2,66.3,508.6,66.3L508.6,66.3z"/>
        </g>
        <text transform="matrix(1 0 0 1 380.5223 103.7521)" fill="#221F1F" font-family="'HelveticaNeue-Light'" font-size="27.7481">origin</text>
        <path fill="#58595B" fill-opacity="0.5" d="M437.8,1.5c-11.4,0-20.7,9.2-20.7,20.5c0,9.1,5.9,16.7,14.2,19.5c1,0.2,1.4-0.4,1.4-1
                c0-0.5,0-2.1,0-3.8c-5.8,1.2-7-2.4-7-2.4c-0.9-2.4-2.3-3-2.3-3c-1.9-1.3,0.1-1.2,0.1-1.2c2.1,0.1,3.2,2.1,3.2,2.1
                c1.8,3.1,4.9,2.2,6,1.7c0.2-1.3,0.7-2.2,1.3-2.7c-4.6-0.5-9.4-2.3-9.4-10.1c0-2.2,0.8-4.1,2.1-5.5c-0.2-0.5-0.9-2.6,0.2-5.4
                c0,0,1.7-0.6,5.7,2.1c1.7-0.5,3.4-0.7,5.2-0.7c1.8,0,3.5,0.2,5.2,0.7c4-2.7,5.7-2.1,5.7-2.1c1.1,2.8,0.4,4.9,0.2,5.4
                c1.3,1.4,2.1,3.3,2.1,5.5c0,7.9-4.8,9.6-9.5,10.1c0.7,0.6,1.4,1.9,1.4,3.8c0,2.7,0,5,0,5.6c0,0.5,0.4,1.2,1.4,1
                c8.2-2.7,14.2-10.4,14.2-19.5C458.5,10.7,449.2,1.5,437.8,1.5z"/>
</g>
</svg>
