<?xml version="1.0" encoding="utf-8"?>
<!DOCTYPE svg PUBLIC "-//W3C//DTD SVG 1.1//EN" "http://www.w3.org/Graphics/SVG/1.1/DTD/svg11.dtd">
<svg version="1.1" xmlns="http://www.w3.org/2000/svg" xmlns:xlink="http://www.w3.org/1999/xlink" x="0px" y="0px" viewBox="0 0 1000 1000" enable-background="new 0 0 1000 1000" xml:space="preserve">
<g><path d="M497.5,439.4c-70.3,0-127.4-57.8-127.4-128.8c0-71,57.2-128.8,127.4-128.8c70.3,0,127.5,57.8,127.5,128.8C625,381.6,567.8,439.4,497.5,439.4z M497.5,217.2c-51,0-92.4,41.9-92.4,93.4c0,51.5,41.4,93.4,92.4,93.4c51,0,92.4-41.9,92.4-93.4C590,259.1,548.5,217.2,497.5,217.2z"/><path d="M497,890.2l-13.3-15.9c-11.6-13.8-283.6-340.5-283.6-553.8C200.2,149.3,333.6,10,497.5,10c163.2,0,296.6,139.3,297.4,310.4c0.9,213.4-272.9,540.1-284.5,554L497,890.2z M497.5,45.4c-144.7,0-262.3,123.4-262.3,275.1c0,174.6,206.9,445.6,261.9,514.5c55.3-68.9,263.6-339.9,262.8-514.5C759.3,168.8,641.6,45.4,497.5,45.4z"/><path d="M710.2,657.7v35h70.1L850.3,955H149.7l70.1-262.3h52.5v-35h-87.6L97.1,990h805.8l-87.6-332.3H710.2z"/></g>
</svg>
